<svg xmlns="http://www.w3.org/2000/svg" xmlns:xlink="http://www.w3.org/1999/xlink" viewBox="0,0,256,256" width="48px" height="48px" fill-rule="nonzero"><g fill="none" fill-rule="nonzero" stroke="none" stroke-width="1" stroke-linecap="butt" stroke-linejoin="miter" stroke-miterlimit="10" stroke-dasharray="" stroke-dashoffset="0" font-family="none" font-weight="none" font-size="none" text-anchor="none" style="mix-blend-mode: normal"><g transform="scale(5.33333,5.33333)"><path d="M45,23c0,-3.325 -0.091,-6.167 -0.271,-8.447c-0.251,-3.186 -2.753,-5.674 -5.95,-5.917c-3.804,-0.29 -9.456,-0.636 -14.779,-0.636c-5.323,0 -10.975,0.346 -14.779,0.636c-3.197,0.243 -5.7,2.731 -5.951,5.917c-0.179,2.28 -0.27,5.122 -0.27,8.447c0,0.314 0,1.625 0,2c0,4.009 0.131,7.55 0.39,10.527c0.275,3.154 2.772,5.623 5.938,5.87c3.526,0.275 8.932,0.603 14.672,0.603c5.74,0 11.146,-0.328 14.671,-0.604c3.167,-0.247 5.664,-2.715 5.939,-5.87c0.259,-2.976 0.39,-6.517 0.39,-10.526c0,-0.375 0,-1.685 0,-2z" fill="#000000"></path><path d="M43.732,14.631c-0.211,-2.678 -2.351,-4.795 -5.029,-4.999c-3.747,-0.285 -9.399,-0.632 -14.703,-0.632c-5.304,0 -10.956,0.347 -14.703,0.633c-2.678,0.204 -4.818,2.321 -5.029,4.999c-0.153,1.933 -0.268,4.631 -0.268,8.368c0,4.66 0.18,8.064 0.386,10.44c0.232,2.66 2.358,4.752 5.02,4.96c3.57,0.278 8.921,0.6 14.594,0.6c5.673,0 11.024,-0.322 14.593,-0.6c2.662,-0.208 4.789,-2.299 5.02,-4.96c0.207,-2.376 0.387,-5.78 0.387,-10.44c0,-3.737 -0.115,-6.435 -0.268,-8.369z" fill="#fcc300"></path><path d="M24,40c-5.74,0 -11.146,-0.328 -14.671,-0.604c-3.166,-0.247 -5.664,-2.715 -5.938,-5.87c-0.26,-2.976 -0.391,-6.517 -0.391,-10.526c0,-3.325 0.091,-6.167 0.271,-8.447c0.251,-3.186 2.753,-5.674 5.951,-5.917c3.803,-0.29 9.455,-0.636 14.778,-0.636c5.323,0 10.975,0.346 14.779,0.636c3.197,0.243 5.699,2.731 5.95,5.917c0.18,2.28 0.271,5.122 0.271,8.447c0,4.009 -0.131,7.55 -0.39,10.526c-0.275,3.155 -2.772,5.623 -5.939,5.87c-3.525,0.276 -8.931,0.604 -14.671,0.604zM24,10c-5.26,0 -10.857,0.343 -14.627,0.63c-2.208,0.168 -3.936,1.884 -4.108,4.08c-0.176,2.228 -0.265,5.017 -0.265,8.29c0,3.951 0.129,7.435 0.382,10.354c0.19,2.175 1.915,3.878 4.102,4.049c3.49,0.272 8.841,0.597 14.516,0.597c5.675,0 11.026,-0.325 14.515,-0.598c2.188,-0.17 3.913,-1.874 4.103,-4.049c0.253,-2.918 0.382,-6.402 0.382,-10.353c0,-3.272 -0.089,-6.062 -0.265,-8.29v0c-0.173,-2.196 -1.9,-3.912 -4.108,-4.08c-3.77,-0.287 -9.367,-0.63 -14.627,-0.63z" fill="#000000"></path><path d="M30.785,25.052l-9.944,5.863c-0.814,0.479 -1.841,-0.107 -1.841,-1.052v-11.726c0,-0.945 1.027,-1.531 1.841,-1.052l9.944,5.863c0.801,0.473 0.801,1.631 0,2.104z" fill="#000000"></path></g></g></svg>